<svg xmlns="http://www.w3.org/2000/svg" xmlns:xlink="http://www.w3.org/1999/xlink" width="500" zoomAndPan="magnify" viewBox="0 0 375 374.999991" height="500" preserveAspectRatio="xMidYMid meet" version="1.0"><defs><clipPath id="f8c74f8df4"><path d="M 45.734375 38 L 329 38 L 329 351 L 45.734375 351 Z M 45.734375 38 " clip-rule="nonzero"/></clipPath></defs><g clip-path="url(#f8c74f8df4)"><path fill="#ffffff" d="M 180.664062 312.792969 C 169.5 312.792969 160.417969 303.6875 160.417969 292.550781 C 160.417969 281.371094 169.496094 272.265625 180.664062 272.265625 C 191.828125 272.265625 200.910156 281.367188 200.910156 292.546875 C 200.910156 303.6875 191.828125 312.792969 180.664062 312.792969 Z M 180.664062 262.800781 C 164.273438 262.804688 150.9375 276.140625 150.9375 292.550781 C 150.9375 308.917969 164.273438 322.253906 180.664062 322.253906 C 197.054688 322.253906 210.390625 308.917969 210.390625 292.546875 C 210.390625 276.136719 197.054688 262.800781 180.664062 262.800781 Z M 153.65625 61.886719 C 153.65625 60.609375 154.75 59.492188 156.046875 59.492188 L 204.066406 59.492188 L 178.359375 89.039062 L 170.246094 79.136719 C 168.589844 77.140625 165.601562 76.820312 163.578125 78.496094 C 161.550781 80.132812 161.257812 83.128906 162.914062 85.164062 L 174.582031 99.378906 C 176.441406 101.644531 179.871094 101.746094 181.824219 99.5 L 207.660156 69.832031 L 207.660156 111.117188 C 207.660156 112.433594 206.5625 113.511719 205.269531 113.511719 L 156.046875 113.515625 C 154.75 113.515625 153.65625 112.4375 153.65625 111.117188 Z M 156.046875 122.976562 L 205.269531 122.976562 C 211.816406 122.976562 217.140625 117.664062 217.140625 111.117188 L 217.136719 61.886719 C 217.136719 61.007812 217.027344 60.128906 216.835938 59.289062 L 228.5 45.875 C 230.214844 43.917969 230.011719 40.925781 228.035156 39.207031 C 226.0625 37.492188 223.070312 37.6875 221.351562 39.644531 L 211.019531 51.542969 C 209.3125 50.585938 207.355469 50.027344 205.269531 50.027344 L 156.046875 50.027344 C 149.503906 50.027344 144.179688 55.378906 144.179688 61.886719 L 144.179688 111.117188 C 144.179688 117.667969 149.503906 122.976562 156.046875 122.976562 Z M 306.640625 152.398438 C 306.640625 153.675781 305.546875 154.796875 304.25 154.796875 L 255.03125 154.796875 C 253.734375 154.796875 252.640625 153.679688 252.640625 152.402344 L 252.636719 103.171875 C 252.636719 101.894531 253.730469 100.777344 255.027344 100.777344 L 303.050781 100.773438 L 277.339844 130.320312 L 269.230469 120.417969 C 267.570312 118.382812 264.585938 118.101562 262.558594 119.742188 C 260.535156 121.417969 260.238281 124.414062 261.898438 126.410156 L 273.566406 140.660156 C 274.449219 141.742188 275.765625 142.378906 277.160156 142.378906 C 277.300781 142.597656 279.492188 142.292969 280.804688 140.78125 L 306.640625 111.117188 Z M 327.015625 80.488281 C 325.042969 78.773438 322.046875 78.972656 320.332031 80.929688 L 310 92.789062 C 308.292969 91.871094 306.335938 91.3125 304.25 91.3125 L 255.027344 91.3125 C 248.484375 91.3125 243.160156 96.625 243.160156 103.171875 L 243.160156 152.402344 C 243.160156 158.949219 248.484375 164.257812 255.03125 164.257812 L 304.25 164.257812 C 310.796875 164.257812 316.121094 158.949219 316.121094 152.398438 L 316.117188 103.167969 C 316.117188 102.289062 316.007812 101.414062 315.816406 100.574219 L 327.480469 87.15625 C 329.195312 85.203125 328.992188 82.207031 327.015625 80.488281 Z M 55.738281 103.175781 C 55.738281 101.898438 56.832031 100.777344 58.128906 100.777344 L 106.148438 100.777344 L 80.441406 130.324219 L 72.328125 120.421875 C 70.671875 118.386719 67.683594 118.105469 65.660156 119.742188 C 63.636719 121.421875 63.339844 124.414062 65 126.410156 L 76.667969 140.664062 C 77.550781 141.742188 78.867188 142.382812 80.261719 142.382812 C 80.382812 142.59375 82.578125 142.3125 83.90625 140.785156 L 109.742188 111.117188 L 109.742188 152.402344 C 109.742188 153.679688 108.648438 154.800781 107.351562 154.800781 L 58.128906 154.800781 C 56.835938 154.800781 55.738281 153.683594 55.738281 152.40625 Z M 58.128906 164.265625 L 107.351562 164.261719 C 113.894531 164.261719 119.21875 158.953125 119.21875 152.402344 L 119.21875 103.175781 C 119.21875 102.296875 119.109375 101.417969 118.917969 100.578125 L 130.578125 87.164062 C 132.296875 85.207031 132.089844 82.210938 130.117188 80.496094 C 128.140625 78.777344 125.148438 78.976562 123.429688 80.933594 L 113.097656 92.792969 C 111.394531 91.875 109.433594 91.316406 107.347656 91.316406 L 58.128906 91.316406 C 51.582031 91.316406 46.257812 96.628906 46.257812 103.175781 L 46.261719 152.40625 C 46.261719 158.953125 51.585938 164.265625 58.128906 164.265625 Z M 305.265625 241.796875 L 260.058594 241.796875 L 267.683594 231.097656 L 305.003906 233.171875 C 307.609375 233.292969 309.570312 235.167969 309.570312 237.484375 C 309.570312 239.839844 307.640625 241.796875 305.265625 241.796875 Z M 222.726562 232.777344 L 243.476562 241.398438 C 245.921875 242.398438 248.578125 241.640625 250.089844 239.445312 L 284.292969 191.449219 C 285.140625 190.210938 285.46875 188.65625 285.191406 187.136719 C 284.3125 182.300781 277.988281 180.375 274.671875 184.863281 C 274.542969 185.023438 274.40625 185.179688 274.257812 185.339844 L 242.203125 220.078125 C 240.554688 221.875 237.820312 222.113281 235.875 220.679688 L 205.78125 198.078125 C 200.210938 194.726562 191.449219 192.890625 182.546875 193.089844 L 178.765625 193.089844 C 169.867188 192.890625 161.109375 194.726562 155.539062 198.082031 L 125.449219 220.679688 C 123.503906 222.117188 120.769531 221.878906 119.121094 220.082031 L 87.0625 185.347656 C 86.914062 185.1875 86.777344 185.027344 86.652344 184.867188 C 85.769531 183.589844 84.4375 182.710938 82.894531 182.429688 C 77.828125 181.511719 74.09375 187.277344 77.0625 191.496094 L 111.199219 239.40625 C 112.769531 241.617188 115.433594 242.386719 117.851562 241.402344 L 138.597656 232.777344 C 141.6875 231.503906 145.148438 233.839844 145.148438 237.167969 L 145.152344 253.300781 L 152.746094 254.9375 C 155.640625 252.78125 158.757812 250.984375 162.054688 249.546875 L 165.691406 238.367188 C 166.484375 235.890625 168.75 234.253906 171.324219 234.253906 L 190 234.253906 C 192.578125 234.253906 194.84375 235.890625 195.636719 238.367188 L 199.269531 249.546875 C 202.566406 250.984375 205.683594 252.78125 208.582031 254.9375 L 216.175781 253.300781 L 216.171875 237.167969 C 216.171875 233.832031 219.625 231.503906 222.726562 232.777344 Z M 217.519531 286.398438 C 217.285156 284.960938 217.710938 283.523438 218.675781 282.445312 L 226.296875 273.980469 L 219.542969 262.28125 L 208.386719 264.679688 C 206.976562 264.957031 205.507812 264.597656 204.390625 263.679688 C 201.199219 261.046875 197.628906 258.96875 193.78125 257.53125 C 192.429688 257.050781 191.382812 255.933594 190.9375 254.578125 L 187.417969 243.757812 L 173.90625 243.757812 L 170.386719 254.578125 C 169.941406 255.933594 168.894531 257.050781 167.546875 257.53125 C 163.699219 258.96875 160.128906 261.046875 156.933594 263.679688 C 155.820312 264.597656 154.351562 264.957031 152.9375 264.679688 L 141.78125 262.285156 L 135.027344 273.980469 L 142.652344 282.445312 C 143.617188 283.523438 144.039062 284.960938 143.804688 286.398438 C 143.140625 290.476562 143.132812 294.578125 143.804688 298.65625 C 144.039062 300.09375 143.617188 301.53125 142.652344 302.609375 L 135.027344 311.078125 L 141.785156 322.773438 L 152.9375 320.417969 C 154.351562 320.097656 155.824219 320.460938 156.9375 321.378906 C 160.128906 324.011719 163.699219 326.089844 167.546875 327.523438 C 168.894531 328.042969 169.941406 329.121094 170.386719 330.480469 L 173.910156 341.339844 L 187.421875 341.339844 L 190.9375 330.480469 C 191.382812 329.121094 192.429688 328.042969 193.78125 327.523438 C 197.632812 326.085938 201.203125 324.011719 204.394531 321.375 C 205.507812 320.457031 206.980469 320.097656 208.390625 320.417969 L 219.542969 322.773438 L 226.296875 311.074219 L 218.671875 302.609375 C 217.710938 301.53125 217.285156 300.09375 217.519531 298.65625 C 218.195312 294.582031 218.1875 290.46875 217.519531 286.398438 Z M 55.273438 237.492188 C 55.273438 235.175781 57.238281 233.296875 59.84375 233.179688 L 93.777344 231.261719 L 101.265625 241.804688 L 59.578125 241.804688 C 57.207031 241.804688 55.273438 239.847656 55.273438 237.492188 Z M 180.660156 145.335938 C 191.238281 145.335938 199.839844 153.917969 199.839844 164.5 C 199.839844 175.800781 190.101562 184.476562 179.324219 183.625 C 169.371094 182.949219 161.476562 174.644531 161.476562 164.5 C 161.476562 153.921875 170.082031 145.335938 180.660156 145.335938 Z M 305.527344 223.710938 L 274.1875 221.953125 L 292.046875 196.878906 C 296.886719 190.035156 295.0625 180.351562 288.1875 175.597656 C 284.835938 173.28125 280.773438 172.40625 276.738281 173.125 C 272.824219 173.84375 269.410156 175.957031 267.089844 179.152344 L 238.140625 210.496094 L 211.28125 190.335938 C 208.710938 188.515625 203.71875 186.59375 200.023438 185.625 C 205.734375 180.394531 209.320312 172.847656 209.320312 164.5 C 209.320312 148.691406 196.460938 135.875 180.65625 135.875 C 164.855469 135.875 152 148.691406 152 164.503906 C 152 172.847656 155.585938 180.394531 161.296875 185.625 C 157.605469 186.59375 152.605469 188.519531 150.039062 190.335938 L 123.179688 210.5 L 94.230469 179.15625 C 91.90625 175.964844 88.496094 173.847656 84.582031 173.128906 C 80.546875 172.410156 76.484375 173.289062 73.132812 175.605469 C 66.191406 180.394531 64.464844 189.976562 69.308594 196.964844 L 87.269531 222.160156 L 59.316406 223.71875 C 51.734375 224.117188 45.796875 230.183594 45.796875 237.492188 C 45.796875 245.078125 51.980469 251.265625 59.578125 251.265625 L 114.742188 251.265625 C 116.976562 251.425781 119.273438 251.066406 121.476562 250.148438 L 135.671875 244.277344 L 135.671875 254.21875 C 135.367188 254.539062 135.09375 254.898438 134.863281 255.296875 L 125.527344 271.46875 C 124.242188 273.703125 124.535156 276.5 126.253906 278.414062 L 134.132812 287.160156 C 133.726562 290.714844 133.71875 294.339844 134.132812 297.898438 L 126.253906 306.644531 C 124.535156 308.558594 124.242188 311.355469 125.527344 313.589844 L 134.867188 329.761719 C 136.15625 331.996094 138.714844 333.117188 141.230469 332.597656 L 152.746094 330.121094 C 155.640625 332.277344 158.757812 334.113281 162.054688 335.511719 L 165.691406 346.730469 C 166.488281 349.164062 168.753906 350.804688 171.328125 350.804688 L 190 350.800781 C 192.578125 350.800781 194.84375 349.164062 195.636719 346.730469 L 199.269531 335.507812 C 202.570312 334.113281 205.691406 332.273438 208.585938 330.160156 L 220.09375 332.59375 C 222.609375 333.113281 225.171875 331.996094 226.460938 329.757812 L 235.800781 313.589844 C 237.082031 311.351562 236.789062 308.558594 235.070312 306.640625 L 227.191406 297.898438 C 227.609375 294.34375 227.597656 290.707031 227.191406 287.15625 L 235.070312 278.414062 C 236.789062 276.496094 237.082031 273.699219 235.796875 271.464844 L 226.457031 255.292969 C 226.226562 254.894531 225.953125 254.535156 225.652344 254.21875 L 225.652344 244.273438 L 239.847656 250.144531 C 242.34375 251.183594 244.964844 251.5 247.476562 251.179688 C 247.730469 251.222656 247.996094 251.261719 248.261719 251.261719 L 305.265625 251.261719 C 312.863281 251.261719 319.046875 245.070312 319.046875 237.484375 C 319.050781 230.179688 313.109375 224.109375 305.527344 223.710938 Z M 305.527344 223.710938 " fill-opacity="1" fill-rule="evenodd"/></g></svg>