<svg xmlns="http://www.w3.org/2000/svg" xmlns:xlink="http://www.w3.org/1999/xlink" width="500" zoomAndPan="magnify" viewBox="0 0 375 374.999991" height="500" preserveAspectRatio="xMidYMid meet" version="1.0"><defs><clipPath id="710f7f9168"><path d="M 33 34 L 342.761719 34 L 342.761719 341.640625 L 33 341.640625 Z M 33 34 " clip-rule="nonzero"/></clipPath></defs><g clip-path="url(#710f7f9168)"><path fill="#ffffff" d="M 244.3125 37.621094 C 243.878906 36.105469 242.726562 34.820312 241.125 34.269531 C 238.519531 33.390625 235.695312 34.789062 234.8125 37.390625 C 228.933594 54.5625 218.675781 69.160156 206.949219 81.609375 C 195.070312 94.210938 181.601562 104.6875 169.558594 113.429688 C 164.140625 117.359375 158.253906 120.671875 152.949219 123.65625 C 147.246094 126.859375 142.109375 129.753906 138.386719 132.871094 C 137.136719 131.207031 134.921875 130.449219 132.839844 131.144531 L 56.652344 156.835938 C 54.046875 157.710938 52.648438 160.527344 53.511719 163.136719 L 57.179688 173.996094 L 44.972656 178.113281 C 40.382812 179.660156 36.839844 182.941406 34.84375 186.96875 C 32.847656 190.992188 32.386719 195.78125 33.925781 200.355469 L 49.085938 245.316406 C 50.636719 249.90625 53.914062 253.441406 57.945312 255.445312 C 61.96875 257.433594 66.757812 257.90625 71.328125 256.359375 L 83.5625 252.234375 L 87.21875 263.074219 C 88.09375 265.679688 90.910156 267.078125 93.515625 266.214844 L 108.632812 261.117188 L 154.308594 332.953125 C 156.398438 336.242188 159.710938 338.71875 163.351562 340.050781 L 163.367188 340.058594 C 167.035156 341.394531 171.136719 341.621094 174.796875 340.390625 L 191.179688 334.867188 C 192.316406 334.488281 193.339844 334 194.222656 333.433594 C 196.671875 331.871094 198.390625 329.652344 199.273438 327.082031 C 200.132812 324.578125 200.140625 321.792969 199.210938 319.03125 C 198.902344 318.101562 198.46875 317.171875 197.925781 316.253906 L 197.6875 315.828125 L 153.320312 246.046875 L 169.710938 240.519531 C 171.800781 239.824219 173.117188 237.867188 173.109375 235.777344 C 177.953125 236.003906 183.792969 235.191406 190.261719 234.292969 C 196.316406 233.449219 203.039062 232.515625 209.664062 232.367188 C 224.523438 232.042969 241.574219 232.210938 258.726562 235.058594 C 275.570312 237.851562 292.535156 243.246094 307.597656 253.316406 C 308.84375 254.191406 310.476562 254.476562 312.03125 253.960938 C 314.636719 253.085938 316.039062 250.269531 315.171875 247.660156 Z M 68.164062 246.925781 C 66.183594 247.59375 64.097656 247.390625 62.339844 246.515625 C 60.589844 245.648438 59.175781 244.125 58.511719 242.160156 L 43.347656 197.199219 C 42.683594 195.21875 42.882812 193.128906 43.757812 191.378906 C 44.625 189.632812 46.148438 188.214844 48.113281 187.550781 L 60.335938 183.425781 L 76.328125 230.804688 L 80.375 242.8125 Z M 143.578125 249.332031 L 189.253906 321.171875 L 189.425781 321.417969 C 189.570312 321.675781 189.6875 321.9375 189.773438 322.195312 C 189.980469 322.820312 189.996094 323.40625 189.835938 323.886719 C 189.6875 324.304688 189.363281 324.707031 188.882812 325.007812 C 188.613281 325.179688 188.320312 325.328125 188.023438 325.425781 L 171.640625 330.949219 C 170.191406 331.4375 168.4375 331.308594 166.789062 330.703125 C 165.109375 330.085938 163.617188 329.007812 162.734375 327.617188 L 118.375 257.835938 L 123.820312 255.992188 Z M 95.050781 255.195312 L 73.796875 192.191406 L 68.179688 175.542969 C 68.179688 175.542969 68.179688 175.542969 68.179688 175.535156 L 64.523438 164.675781 L 131.285156 142.160156 L 133.097656 147.539062 C 133.097656 147.539062 133.097656 147.546875 133.097656 147.546875 C 133.097656 147.546875 133.097656 147.554688 133.097656 147.554688 L 159.980469 227.277344 L 161.796875 232.675781 Z M 260.304688 225.242188 C 242.449219 222.277344 224.804688 222.09375 209.445312 222.433594 C 202.121094 222.597656 195.148438 223.5625 188.875 224.4375 C 178.46875 225.882812 170.394531 227.003906 169.417969 224.128906 C 169.417969 224.128906 169.417969 224.121094 169.417969 224.121094 L 142.535156 144.390625 C 141.574219 141.488281 148.667969 137.496094 157.8125 132.359375 C 163.367188 129.242188 169.527344 125.769531 175.398438 121.511719 C 187.808594 112.492188 201.734375 101.660156 214.1875 88.449219 C 223.859375 78.191406 232.617188 66.515625 239.0625 53.1875 L 301.46875 238.261719 C 288.265625 231.539062 274.222656 227.546875 260.304688 225.242188 Z M 277.332031 103.164062 C 278.847656 100.871094 281.941406 100.246094 284.234375 101.761719 C 289.144531 105.019531 293.742188 109.460938 297.664062 114.851562 C 301.390625 119.964844 304.511719 125.929688 306.738281 132.523438 C 308.957031 139.105469 310.089844 145.742188 310.21875 152.054688 C 310.359375 158.703125 309.390625 165.015625 307.449219 170.601562 C 306.542969 173.191406 303.707031 174.5625 301.113281 173.664062 C 298.523438 172.757812 297.152344 169.917969 298.050781 167.328125 C 299.613281 162.839844 300.386719 157.703125 300.277344 152.257812 C 300.171875 146.941406 299.203125 141.320312 297.308594 135.679688 C 295.414062 130.046875 292.765625 124.996094 289.640625 120.699219 C 286.445312 116.316406 282.726562 112.703125 278.742188 110.070312 C 276.441406 108.546875 275.816406 105.460938 277.332031 103.164062 Z M 338.109375 182.167969 C 337.203125 184.757812 334.363281 186.128906 331.773438 185.230469 C 329.179688 184.324219 327.8125 181.484375 328.710938 178.894531 C 331.371094 171.257812 332.6875 162.5625 332.492188 153.339844 C 332.308594 144.390625 330.691406 134.945312 327.503906 125.496094 C 324.316406 116.050781 319.882812 107.566406 314.613281 100.332031 C 309.199219 92.898438 302.878906 86.769531 296.125 82.296875 C 293.835938 80.78125 293.207031 77.6875 294.722656 75.398438 C 296.238281 73.105469 299.335938 72.480469 301.625 73.996094 C 309.3125 79.085938 316.5 86.042969 322.644531 94.484375 C 328.507812 102.527344 333.429688 111.929688 336.933594 122.339844 C 340.4375 132.746094 342.21875 143.199219 342.425781 153.148438 C 342.648438 163.550781 341.148438 173.441406 338.109375 182.167969 Z M 338.109375 182.167969 " fill-opacity="1" fill-rule="nonzero"/></g></svg>