<svg xmlns="http://www.w3.org/2000/svg" xmlns:xlink="http://www.w3.org/1999/xlink" width="500" zoomAndPan="magnify" viewBox="0 0 375 374.999991" height="500" preserveAspectRatio="xMidYMid meet" version="1.0"><defs><clipPath id="fb6de91500"><path d="M 91 33.390625 L 222 33.390625 L 222 121 L 91 121 Z M 91 33.390625 " clip-rule="nonzero"/></clipPath><clipPath id="6a5062adf7"><path d="M 33.390625 93 L 341.640625 93 L 341.640625 341.640625 L 33.390625 341.640625 Z M 33.390625 93 " clip-rule="nonzero"/></clipPath></defs><path fill="#ffffff" d="M 163.351562 149.058594 L 177.765625 149.058594 C 180.410156 149.058594 182.570312 146.898438 182.570312 144.253906 C 182.570312 141.613281 180.410156 139.449219 177.765625 139.449219 L 163.351562 139.449219 C 160.710938 139.449219 158.546875 141.613281 158.546875 144.253906 C 158.546875 146.898438 160.710938 149.058594 163.351562 149.058594 Z M 163.351562 149.058594 " fill-opacity="1" fill-rule="nonzero"/><path fill="#ffffff" d="M 196.984375 149.058594 L 211.398438 149.058594 C 214.042969 149.058594 216.203125 146.898438 216.203125 144.253906 C 216.203125 141.613281 214.042969 139.449219 211.398438 139.449219 L 196.984375 139.449219 C 194.34375 139.449219 192.179688 141.613281 192.179688 144.253906 C 192.179688 146.898438 194.34375 149.058594 196.984375 149.058594 Z M 196.984375 149.058594 " fill-opacity="1" fill-rule="nonzero"/><path fill="#ffffff" d="M 300.285156 211.519531 L 249.835938 211.519531 C 247.195312 211.519531 245.03125 213.679688 245.03125 216.324219 C 245.03125 218.964844 247.195312 221.128906 249.835938 221.128906 L 300.285156 221.128906 C 302.925781 221.128906 305.089844 218.964844 305.089844 216.324219 C 305.089844 213.679688 302.925781 211.519531 300.285156 211.519531 Z M 300.285156 211.519531 " fill-opacity="1" fill-rule="nonzero"/><path fill="#ffffff" d="M 300.285156 230.738281 L 249.835938 230.738281 C 247.195312 230.738281 245.03125 232.898438 245.03125 235.542969 C 245.03125 238.183594 247.195312 240.347656 249.835938 240.347656 L 300.285156 240.347656 C 302.925781 240.347656 305.089844 238.183594 305.089844 235.542969 C 305.089844 232.898438 302.925781 230.738281 300.285156 230.738281 Z M 300.285156 230.738281 " fill-opacity="1" fill-rule="nonzero"/><path fill="#ffffff" d="M 300.285156 249.957031 L 249.835938 249.957031 C 247.195312 249.957031 245.03125 252.117188 245.03125 254.761719 C 245.03125 257.402344 247.195312 259.566406 249.835938 259.566406 L 300.285156 259.566406 C 302.925781 259.566406 305.089844 257.402344 305.089844 254.761719 C 305.089844 252.117188 302.925781 249.957031 300.285156 249.957031 Z M 300.285156 249.957031 " fill-opacity="1" fill-rule="nonzero"/><path fill="#ffffff" d="M 300.285156 269.175781 L 249.835938 269.175781 C 247.195312 269.175781 245.03125 271.335938 245.03125 273.980469 C 245.03125 276.621094 247.195312 278.785156 249.835938 278.785156 L 300.285156 278.785156 C 302.925781 278.785156 305.089844 276.621094 305.089844 273.980469 C 305.089844 271.335938 302.925781 269.175781 300.285156 269.175781 Z M 300.285156 269.175781 " fill-opacity="1" fill-rule="nonzero"/><path fill="#ffffff" d="M 300.285156 288.394531 L 249.835938 288.394531 C 247.195312 288.394531 245.03125 290.554688 245.03125 293.199219 C 245.03125 295.839844 247.195312 298.003906 249.835938 298.003906 L 300.285156 298.003906 C 302.925781 298.003906 305.089844 295.839844 305.089844 293.199219 C 305.089844 290.554688 302.925781 288.394531 300.285156 288.394531 Z M 300.285156 288.394531 " fill-opacity="1" fill-rule="nonzero"/><path fill="#ffffff" d="M 74.46875 221.128906 L 124.917969 221.128906 C 127.558594 221.128906 129.722656 218.964844 129.722656 216.324219 C 129.722656 213.679688 127.558594 211.519531 124.917969 211.519531 L 74.46875 211.519531 C 71.824219 211.519531 69.664062 213.679688 69.664062 216.324219 C 69.664062 218.964844 71.824219 221.128906 74.46875 221.128906 Z M 74.46875 221.128906 " fill-opacity="1" fill-rule="nonzero"/><path fill="#ffffff" d="M 74.46875 240.347656 L 124.917969 240.347656 C 127.558594 240.347656 129.722656 238.183594 129.722656 235.542969 C 129.722656 232.898438 127.558594 230.738281 124.917969 230.738281 L 74.46875 230.738281 C 71.824219 230.738281 69.664062 232.898438 69.664062 235.542969 C 69.664062 238.183594 71.824219 240.347656 74.46875 240.347656 Z M 74.46875 240.347656 " fill-opacity="1" fill-rule="nonzero"/><path fill="#ffffff" d="M 74.46875 259.566406 L 124.917969 259.566406 C 127.558594 259.566406 129.722656 257.402344 129.722656 254.761719 C 129.722656 252.117188 127.558594 249.957031 124.917969 249.957031 L 74.46875 249.957031 C 71.824219 249.957031 69.664062 252.117188 69.664062 254.761719 C 69.664062 257.402344 71.824219 259.566406 74.46875 259.566406 Z M 74.46875 259.566406 " fill-opacity="1" fill-rule="nonzero"/><path fill="#ffffff" d="M 74.46875 278.785156 L 124.917969 278.785156 C 127.558594 278.785156 129.722656 276.621094 129.722656 273.980469 C 129.722656 271.335938 127.558594 269.175781 124.917969 269.175781 L 74.46875 269.175781 C 71.824219 269.175781 69.664062 271.335938 69.664062 273.980469 C 69.664062 276.621094 71.824219 278.785156 74.46875 278.785156 Z M 74.46875 278.785156 " fill-opacity="1" fill-rule="nonzero"/><path fill="#ffffff" d="M 74.46875 298.003906 L 124.917969 298.003906 C 127.558594 298.003906 129.722656 295.839844 129.722656 293.199219 C 129.722656 290.554688 127.558594 288.394531 124.917969 288.394531 L 74.46875 288.394531 C 71.824219 288.394531 69.664062 290.554688 69.664062 293.199219 C 69.664062 295.839844 71.824219 298.003906 74.46875 298.003906 Z M 74.46875 298.003906 " fill-opacity="1" fill-rule="nonzero"/><path fill="#ffffff" d="M 163.351562 168.277344 L 177.765625 168.277344 C 180.410156 168.277344 182.570312 166.117188 182.570312 163.472656 C 182.570312 160.832031 180.410156 158.667969 177.765625 158.667969 L 163.351562 158.667969 C 160.710938 158.667969 158.546875 160.832031 158.546875 163.472656 C 158.546875 166.117188 160.710938 168.277344 163.351562 168.277344 Z M 163.351562 168.277344 " fill-opacity="1" fill-rule="nonzero"/><path fill="#ffffff" d="M 196.984375 168.277344 L 211.398438 168.277344 C 214.042969 168.277344 216.203125 166.117188 216.203125 163.472656 C 216.203125 160.832031 214.042969 158.667969 211.398438 158.667969 L 196.984375 158.667969 C 194.34375 158.667969 192.179688 160.832031 192.179688 163.472656 C 192.179688 166.117188 194.34375 168.277344 196.984375 168.277344 Z M 196.984375 168.277344 " fill-opacity="1" fill-rule="nonzero"/><path fill="#ffffff" d="M 163.351562 187.496094 L 177.765625 187.496094 C 180.410156 187.496094 182.570312 185.335938 182.570312 182.691406 C 182.570312 180.050781 180.410156 177.886719 177.765625 177.886719 L 163.351562 177.886719 C 160.710938 177.886719 158.546875 180.050781 158.546875 182.691406 C 158.546875 185.335938 160.710938 187.496094 163.351562 187.496094 Z M 163.351562 187.496094 " fill-opacity="1" fill-rule="nonzero"/><path fill="#ffffff" d="M 196.984375 187.496094 L 211.398438 187.496094 C 214.042969 187.496094 216.203125 185.335938 216.203125 182.691406 C 216.203125 180.050781 214.042969 177.886719 211.398438 177.886719 L 196.984375 177.886719 C 194.34375 177.886719 192.179688 180.050781 192.179688 182.691406 C 192.179688 185.335938 194.34375 187.496094 196.984375 187.496094 Z M 196.984375 187.496094 " fill-opacity="1" fill-rule="nonzero"/><path fill="#ffffff" d="M 163.351562 206.714844 L 177.765625 206.714844 C 180.410156 206.714844 182.570312 204.554688 182.570312 201.910156 C 182.570312 199.269531 180.410156 197.105469 177.765625 197.105469 L 163.351562 197.105469 C 160.710938 197.105469 158.546875 199.269531 158.546875 201.910156 C 158.546875 204.554688 160.710938 206.714844 163.351562 206.714844 Z M 163.351562 206.714844 " fill-opacity="1" fill-rule="nonzero"/><path fill="#ffffff" d="M 196.984375 206.714844 L 211.398438 206.714844 C 214.042969 206.714844 216.203125 204.554688 216.203125 201.910156 C 216.203125 199.269531 214.042969 197.105469 211.398438 197.105469 L 196.984375 197.105469 C 194.34375 197.105469 192.179688 199.269531 192.179688 201.910156 C 192.179688 204.554688 194.34375 206.714844 196.984375 206.714844 Z M 196.984375 206.714844 " fill-opacity="1" fill-rule="nonzero"/><path fill="#ffffff" d="M 163.351562 225.933594 L 177.765625 225.933594 C 180.410156 225.933594 182.570312 223.769531 182.570312 221.128906 C 182.570312 218.484375 180.410156 216.324219 177.765625 216.324219 L 163.351562 216.324219 C 160.710938 216.324219 158.546875 218.484375 158.546875 221.128906 C 158.546875 223.769531 160.710938 225.933594 163.351562 225.933594 Z M 163.351562 225.933594 " fill-opacity="1" fill-rule="nonzero"/><path fill="#ffffff" d="M 196.984375 225.933594 L 211.398438 225.933594 C 214.042969 225.933594 216.203125 223.769531 216.203125 221.128906 C 216.203125 218.484375 214.042969 216.324219 211.398438 216.324219 L 196.984375 216.324219 C 194.34375 216.324219 192.179688 218.484375 192.179688 221.128906 C 192.179688 223.769531 194.34375 225.933594 196.984375 225.933594 Z M 196.984375 225.933594 " fill-opacity="1" fill-rule="nonzero"/><path fill="#ffffff" d="M 177.765625 245.152344 C 180.410156 245.152344 182.570312 242.988281 182.570312 240.347656 C 182.570312 237.703125 180.410156 235.542969 177.765625 235.542969 L 163.351562 235.542969 C 160.710938 235.542969 158.546875 237.703125 158.546875 240.347656 C 158.546875 242.988281 160.710938 245.152344 163.351562 245.152344 Z M 177.765625 245.152344 " fill-opacity="1" fill-rule="nonzero"/><path fill="#ffffff" d="M 196.984375 245.152344 L 211.398438 245.152344 C 214.042969 245.152344 216.203125 242.988281 216.203125 240.347656 C 216.203125 237.703125 214.042969 235.542969 211.398438 235.542969 L 196.984375 235.542969 C 194.34375 235.542969 192.179688 237.703125 192.179688 240.347656 C 192.179688 242.988281 194.34375 245.152344 196.984375 245.152344 Z M 196.984375 245.152344 " fill-opacity="1" fill-rule="nonzero"/><g clip-path="url(#fb6de91500)"><path fill="#ffffff" d="M 220.769531 37.113281 C 220.046875 35.191406 218.367188 33.75 216.203125 33.75 L 150.140625 35.429688 C 149.179688 35.429688 148.21875 35.671875 147.5 36.390625 L 93.445312 74.347656 C 92.964844 74.589844 92.726562 74.828125 92.484375 75.308594 C 92.484375 75.308594 92.484375 75.550781 92.246094 75.550781 C 92.003906 75.789062 91.765625 76.269531 91.765625 76.75 C 91.765625 76.75 91.765625 76.992188 91.765625 76.992188 C 91.285156 77.230469 91.285156 77.710938 91.285156 78.191406 C 91.285156 78.433594 91.285156 78.914062 91.285156 79.152344 L 96.089844 101.976562 C 96.570312 104.136719 98.492188 105.816406 100.894531 105.816406 C 101.132812 105.816406 101.613281 105.816406 101.855469 105.816406 C 104.496094 105.335938 106.179688 102.695312 105.457031 100.054688 L 101.855469 82.996094 L 109.300781 82.757812 L 126.839844 114.226562 C 127.800781 116.386719 129.242188 118.308594 131.402344 119.269531 C 132.84375 119.992188 134.285156 120.230469 135.726562 120.230469 C 136.6875 120.230469 137.648438 119.992188 138.609375 119.75 C 138.609375 119.75 138.851562 119.75 138.851562 119.75 L 204.191406 94.289062 C 208.757812 92.605469 211.398438 87.800781 210.199219 82.996094 L 207.554688 50.324219 L 218.847656 42.398438 C 220.769531 41.195312 221.488281 39.035156 220.769531 37.113281 Z M 151.824219 44.800781 L 200.347656 43.597656 L 160.230469 71.464844 L 111.945312 72.90625 Z M 200.828125 85.160156 L 135.726562 110.621094 C 135.726562 110.382812 135.488281 110.140625 135.488281 109.902344 L 120.351562 82.515625 L 162.152344 81.316406 C 163.113281 81.316406 164.074219 81.074219 164.792969 80.355469 L 198.667969 56.8125 L 200.828125 84.199219 C 200.828125 84.4375 200.828125 84.679688 200.828125 85.160156 Z M 200.828125 85.160156 " fill-opacity="1" fill-rule="nonzero"/></g><g clip-path="url(#6a5062adf7)"><path fill="#ffffff" d="M 331.515625 307.613281 L 324.308594 307.613281 L 324.308594 201.910156 L 336.320312 201.910156 C 338.242188 201.910156 340.164062 200.710938 340.882812 198.789062 C 341.605469 196.867188 340.882812 194.703125 339.441406 193.503906 L 291.394531 155.066406 C 290.433594 154.34375 289.472656 154.105469 288.511719 154.105469 L 235.421875 154.105469 L 235.421875 127.4375 L 236.625 127.4375 C 243.351562 127.4375 248.636719 122.152344 248.636719 115.425781 L 248.636719 105.816406 C 248.636719 99.09375 243.351562 93.808594 236.625 93.808594 L 218.125 93.808594 C 215.964844 98.132812 212.359375 101.496094 207.554688 103.175781 L 206.835938 103.417969 L 236.625 103.417969 C 238.066406 103.417969 239.027344 104.375 239.027344 105.816406 L 239.027344 115.425781 C 239.027344 116.867188 238.066406 117.828125 236.625 117.828125 L 170.078125 117.828125 L 142.453125 128.640625 C 142.214844 128.640625 141.972656 128.878906 141.734375 128.878906 C 141.011719 129.121094 140.050781 129.359375 139.332031 129.359375 L 139.332031 153.863281 L 86.480469 153.863281 C 85.277344 153.863281 84.316406 154.34375 83.597656 154.824219 L 35.550781 193.261719 C 33.871094 194.464844 33.390625 196.625 34.109375 198.546875 C 34.589844 200.710938 36.511719 201.910156 38.433594 201.910156 L 50.445312 201.910156 L 50.445312 307.613281 L 43.238281 307.613281 C 37.953125 307.613281 33.628906 311.933594 33.628906 317.21875 L 33.628906 336.4375 C 33.628906 339.082031 35.792969 341.242188 38.433594 341.242188 L 336.320312 341.242188 C 338.960938 341.242188 341.125 339.082031 341.125 336.4375 L 341.125 317.21875 C 341.125 311.933594 336.800781 307.613281 331.515625 307.613281 Z M 235.421875 163.472656 L 286.589844 163.472656 L 322.625 192.300781 L 235.421875 192.300781 Z M 235.421875 201.910156 L 314.699219 201.910156 L 314.699219 307.613281 L 235.421875 307.613281 Z M 148.941406 127.4375 L 225.8125 127.4375 L 225.8125 307.613281 L 213.800781 307.613281 L 213.800781 269.175781 C 213.800781 261.246094 207.316406 254.761719 199.386719 254.761719 L 175.363281 254.761719 C 167.4375 254.761719 160.949219 261.246094 160.949219 269.175781 L 160.949219 307.613281 L 148.941406 307.613281 Z M 204.191406 269.175781 L 204.191406 307.613281 L 170.558594 307.613281 L 170.558594 269.175781 C 170.558594 266.53125 172.722656 264.371094 175.363281 264.371094 L 199.386719 264.371094 C 202.03125 264.371094 204.191406 266.53125 204.191406 269.175781 Z M 88.160156 163.472656 L 139.332031 163.472656 L 139.332031 192.300781 L 52.128906 192.300781 Z M 139.332031 201.910156 L 139.332031 307.613281 L 60.054688 307.613281 L 60.054688 201.910156 Z M 331.515625 331.632812 L 43.238281 331.632812 L 43.238281 317.21875 L 331.515625 317.21875 Z M 331.515625 331.632812 " fill-opacity="1" fill-rule="nonzero"/></g></svg>