<svg xmlns="http://www.w3.org/2000/svg" xmlns:xlink="http://www.w3.org/1999/xlink" width="500" zoomAndPan="magnify" viewBox="0 0 375 374.999991" height="500" preserveAspectRatio="xMidYMid meet" version="1.0"><defs><clipPath id="9862dff2d8"><path d="M 33.390625 33.390625 L 341.640625 33.390625 L 341.640625 341.640625 L 33.390625 341.640625 Z M 33.390625 33.390625 " clip-rule="nonzero"/></clipPath></defs><path fill="#ffffff" d="M 126.953125 132.457031 C 120.890625 132.457031 115.945312 137.402344 115.945312 143.464844 C 115.945312 149.527344 120.890625 154.472656 126.953125 154.472656 C 133.015625 154.472656 137.960938 149.527344 137.960938 143.464844 C 137.960938 137.402344 133.015625 132.457031 126.953125 132.457031 " fill-opacity="1" fill-rule="nonzero"/><path fill="#ffffff" d="M 126.953125 176.488281 C 120.890625 176.488281 115.945312 181.433594 115.945312 187.496094 C 115.945312 193.558594 120.890625 198.503906 126.953125 198.503906 C 133.015625 198.503906 137.960938 193.558594 137.960938 187.496094 C 137.960938 181.433594 133.015625 176.488281 126.953125 176.488281 " fill-opacity="1" fill-rule="nonzero"/><path fill="#ffffff" d="M 126.953125 220.519531 C 120.890625 220.519531 115.945312 225.464844 115.945312 231.527344 C 115.945312 237.589844 120.890625 242.535156 126.953125 242.535156 C 133.015625 242.535156 137.960938 237.589844 137.960938 231.527344 C 137.960938 225.464844 133.015625 220.519531 126.953125 220.519531 " fill-opacity="1" fill-rule="nonzero"/><g clip-path="url(#9862dff2d8)"><path fill="#ffffff" d="M 187.496094 303.078125 C 123.773438 303.078125 71.914062 251.21875 71.914062 187.496094 C 71.914062 123.773438 123.773438 71.914062 187.496094 71.914062 C 251.21875 71.914062 303.078125 123.773438 303.078125 187.496094 C 303.078125 251.21875 251.21875 303.078125 187.496094 303.078125 Z M 341.023438 174.296875 C 340.894531 173.003906 339.925781 171.78125 338.59375 171.242188 L 320.019531 163.824219 C 318.320312 163.136719 317.050781 161.652344 316.664062 159.847656 C 313.332031 144.152344 307.160156 129.296875 298.367188 115.730469 C 297.378906 114.207031 297.207031 112.269531 297.917969 110.570312 L 305.785156 92.148438 C 306.386719 90.769531 306.238281 89.308594 305.378906 88.320312 C 302.882812 85.289062 300.066406 82.191406 296.433594 78.472656 C 292.800781 74.945312 289.703125 72.109375 286.738281 69.679688 C 285.707031 68.777344 284.222656 68.605469 282.847656 69.207031 L 264.398438 77.074219 C 262.722656 77.785156 260.789062 77.613281 259.261719 76.625 C 245.695312 67.832031 230.859375 61.660156 215.144531 58.328125 C 213.339844 57.941406 211.855469 56.695312 211.167969 54.972656 L 203.75 36.378906 C 203.210938 35.066406 201.988281 34.097656 200.695312 33.96875 C 196.742188 33.582031 192.441406 33.390625 187.496094 33.390625 C 182.550781 33.390625 178.25 33.582031 174.359375 33.96875 C 173.007812 34.097656 171.78125 35.066406 171.242188 36.421875 L 163.824219 54.972656 C 163.136719 56.695312 161.652344 57.941406 159.847656 58.328125 C 144.132812 61.660156 129.296875 67.832031 115.730469 76.625 C 114.207031 77.613281 112.269531 77.785156 110.59375 77.074219 L 92.148438 69.207031 C 90.769531 68.605469 89.308594 68.753906 88.320312 69.617188 C 85.289062 72.109375 82.191406 74.945312 78.472656 78.558594 C 74.949219 82.191406 72.109375 85.289062 69.679688 88.234375 C 68.753906 89.308594 68.605469 90.769531 69.207031 92.148438 L 77.074219 110.570312 C 77.785156 112.269531 77.613281 114.207031 76.625 115.730469 C 67.832031 129.296875 61.660156 144.152344 58.328125 159.847656 C 57.941406 161.652344 56.671875 163.136719 54.972656 163.824219 L 36.378906 171.242188 C 35.066406 171.78125 34.078125 173.003906 33.96875 174.296875 C 33.5625 178.316406 33.390625 182.488281 33.390625 187.496094 C 33.390625 192.503906 33.5625 196.675781 33.96875 200.632812 C 34.078125 201.988281 35.066406 203.210938 36.421875 203.75 L 54.972656 211.167969 C 56.671875 211.855469 57.941406 213.339844 58.328125 215.144531 C 61.660156 230.859375 67.832031 245.695312 76.625 259.261719 C 77.613281 260.808594 77.785156 262.722656 77.074219 264.421875 L 69.207031 282.847656 C 68.605469 284.222656 68.753906 285.683594 69.617188 286.671875 C 72.109375 289.683594 74.925781 292.800781 78.558594 296.519531 C 82.191406 300.066406 85.308594 302.882812 88.234375 305.3125 C 89.308594 306.214844 90.769531 306.386719 92.148438 305.785156 L 110.570312 297.917969 C 111.28125 297.636719 112.011719 297.488281 112.742188 297.488281 C 113.773438 297.488281 114.828125 297.789062 115.730469 298.367188 C 129.277344 307.160156 144.132812 313.332031 159.847656 316.664062 C 161.652344 317.050781 163.136719 318.320312 163.824219 320.019531 L 171.242188 338.617188 C 171.78125 339.925781 173.007812 340.914062 174.296875 341.023438 C 178.25 341.410156 182.550781 341.605469 187.496094 341.605469 C 192.441406 341.605469 196.742188 341.410156 200.632812 341.023438 C 201.988281 340.914062 203.210938 339.925781 203.75 338.574219 L 211.167969 320.019531 C 211.855469 318.320312 213.339844 317.050781 215.144531 316.664062 C 230.859375 313.332031 245.714844 307.160156 259.261719 298.367188 C 260.808594 297.378906 262.722656 297.207031 264.421875 297.917969 L 282.847656 305.785156 C 284.222656 306.386719 285.707031 306.238281 286.671875 305.378906 C 289.683594 302.882812 292.800781 300.066406 296.519531 296.433594 C 300.066406 292.800781 302.882812 289.683594 305.3125 286.757812 C 306.238281 285.683594 306.386719 284.222656 305.785156 282.847656 L 297.917969 264.421875 C 297.207031 262.722656 297.378906 260.808594 298.367188 259.261719 C 307.160156 245.695312 313.332031 230.859375 316.664062 215.144531 C 317.050781 213.339844 318.320312 211.855469 320.019531 211.167969 L 338.617188 203.75 C 339.925781 203.210938 340.894531 201.988281 341.023438 200.695312 C 341.433594 196.675781 341.605469 192.503906 341.605469 187.496094 C 341.605469 182.488281 341.433594 178.316406 341.023438 174.359375 C 341.023438 174.339844 341.023438 174.316406 341.023438 174.296875 " fill-opacity="1" fill-rule="nonzero"/></g><path fill="#ffffff" d="M 253.542969 132.457031 L 165.480469 132.457031 C 159.398438 132.457031 154.472656 137.382812 154.472656 143.464844 C 154.472656 149.550781 159.398438 154.472656 165.480469 154.472656 L 253.542969 154.472656 C 259.625 154.472656 264.550781 149.550781 264.550781 143.464844 C 264.550781 137.382812 259.625 132.457031 253.542969 132.457031 " fill-opacity="1" fill-rule="nonzero"/><path fill="#ffffff" d="M 253.542969 176.488281 L 165.480469 176.488281 C 159.398438 176.488281 154.472656 181.410156 154.472656 187.496094 C 154.472656 193.582031 159.398438 198.503906 165.480469 198.503906 L 253.542969 198.503906 C 259.625 198.503906 264.550781 193.582031 264.550781 187.496094 C 264.550781 181.410156 259.625 176.488281 253.542969 176.488281 " fill-opacity="1" fill-rule="nonzero"/><path fill="#ffffff" d="M 253.542969 220.519531 L 165.480469 220.519531 C 159.398438 220.519531 154.472656 225.441406 154.472656 231.527344 C 154.472656 237.613281 159.398438 242.535156 165.480469 242.535156 L 253.542969 242.535156 C 259.625 242.535156 264.550781 237.613281 264.550781 231.527344 C 264.550781 225.441406 259.625 220.519531 253.542969 220.519531 " fill-opacity="1" fill-rule="nonzero"/></svg>