<svg width="260" height="37" viewBox="0 0 260 37" fill="none" xmlns="http://www.w3.org/2000/svg">
<path d="M0 0.980972H9.13346V30.0372H20.5209V36.6429H0V0.980972Z" fill="#3399FF"/>
<path d="M46.9936 0.869293V7.47501H33.4225V15.1519H45.397V21.7576H33.4225V30.0371H46.9936V36.6428H24.2891V0.869293H46.9936Z" fill="black"/>
<path d="M77.3534 36.643L75.2873 30.6398H61.8101L59.7205 36.643H49.9766L63.0311 0.869461H74.1603L87.1443 36.643H77.3534ZM64.1111 24.0341H72.9863L68.5487 11.336L64.1111 24.0341Z" fill="black"/>
<path d="M99.4323 22.7621V36.643H90.2988V0.981049H105.114C109.446 0.981049 112.827 2.04667 115.257 4.17232C117.682 6.30356 118.897 8.87555 118.897 11.8939C118.897 13.9637 118.227 15.9778 116.901 17.9417C115.586 19.9055 113.432 21.3003 110.444 22.1149L119.648 36.643H108.941L100.512 22.7621H99.4323ZM99.4323 7.58677V16.1563H105.114C106.488 16.1563 107.58 15.7714 108.378 14.9959C109.188 14.226 109.599 13.205 109.599 11.9385C109.599 10.6609 109.182 9.61758 108.354 8.81418C107.539 7.99962 106.458 7.58677 105.114 7.58677H99.4323Z" fill="black"/>
<path d="M149.104 0.869293H158.261V36.6428H149.104L133.819 14.1254V36.6428H124.686V0.869293H133.819L149.104 23.3868V0.869293Z" fill="black"/>
<path d="M164.779 22.271V0.980972H173.913V22.271C173.913 24.4023 174.459 26.0425 175.556 27.203C176.666 28.3523 178.292 28.9214 180.44 28.9214C182.582 28.9214 184.22 28.3523 185.347 27.203C186.486 26.0425 187.061 24.4023 187.061 22.271V0.980972H196.218V22.271C196.218 25.4121 195.443 28.1291 193.894 30.4166C192.344 32.7096 190.378 34.3834 188 35.4378C185.635 36.4811 183.058 37 180.276 37C175.92 37 172.252 35.7168 169.264 33.1392C166.27 30.5672 164.779 26.9464 164.779 22.271Z" fill="black"/>
<path d="M226.523 36.643L224.457 30.6398H210.98L208.89 36.643H199.146L212.201 0.869461H223.33L236.314 36.643H226.523ZM213.281 24.0341H222.156L217.719 11.336L213.281 24.0341Z" fill="black"/>
<path d="M239.479 0.981049H248.612V30.0373H259.999V36.643H239.479V0.981049Z" fill="#6554C0"/>
</svg>
